<?xml version="1.0" encoding="UTF-8"?>
<!DOCTYPE svg PUBLIC "-//W3C//DTD SVG 1.1//EN" "http://www.w3.org/Graphics/SVG/1.1/DTD/svg11.dtd">
<!-- Creator: CorelDRAW -->
<svg xmlns="http://www.w3.org/2000/svg" xml:space="preserve" width="42.3332mm" height="24.5532mm" version="1.1" style="shape-rendering:geometricPrecision; text-rendering:geometricPrecision; image-rendering:optimizeQuality; fill-rule:evenodd; clip-rule:evenodd"
viewBox="0 0 4233.32 2455.32"
 xmlns:xlink="http://www.w3.org/1999/xlink"
 xmlns:xodm="http://www.corel.com/coreldraw/odm/2003">
 <defs>
  <style type="text/css">
   <![CDATA[
    .fil0 {fill:#C60000;fill-rule:nonzero}
    .fil1 {fill:#E85900;fill-rule:nonzero}
    .fil2 {fill:white;fill-rule:nonzero}
   ]]>
  </style>
 </defs>
 <g id="Camada_x0020_1">
  <metadata id="CorelCorpID_0Corel-Layer"/>
  <g id="_2119397830720">
   <path class="fil0" d="M3341.05 1285.19c-126.2,0 -221.13,87.41 -221.13,212.83 0,130.24 109.59,207.02 208.41,207.02 22.49,0 40.12,-5.83 52.79,-16.52 -38.13,75.83 -130.09,163.29 -223.96,208.92l144.72 44.71c152.63,-89.42 264.12,-256.56 264.12,-423.72 0,-147.71 -101.7,-233.24 -224.95,-233.24zm80.16 252.73c-12.72,32.02 -43.02,45.66 -78.22,45.66 -48.92,0 -84.12,-37 -84.12,-88.46 0,-49.66 35.2,-84.61 78.22,-84.61 45.99,0 87.07,37.92 87.07,91.43 0,11.61 0,26.21 -2.95,35.98zm-702.3 -106.01l110.55 -9.74 0 497.66 140.86 0 0 -632.71 -240.65 21.35 -10.76 123.44zm1186.49 369.34c67.49,-72.85 160.39,-207.01 160.39,-308.14 0,-136.98 -94.8,-207.92 -223.98,-207.92 -59.68,0 -110.56,15.54 -149.65,38.83l11.7 125.38c38.2,-24.25 77.36,-39.83 124.24,-39.83 53.83,0 92.92,34.07 92.92,95.25 0,89.42 -118.41,247.78 -245.5,377.12l0 37.89 422.56 0 0 -118.58 -192.68 0z"/>
   <path class="fil1" d="M3124.73 743.63l-132.13 336.42 76.87 0 25.78 -69.56 110.58 0 26.33 69.56 81.07 0 -132.14 -336.42 -56.36 0zm-9.51 205.63l24.28 -66.96c3.68,-9.45 7.86,-22 10.47,-34.04l1.11 0c3.15,12.04 6.87,24.59 10.52,34.04l24.23 66.96 -70.61 0zm-241.13 -76.94c-40.02,-13.08 -51.62,-23.02 -51.62,-38.69 0,-16.22 13.66,-28.75 42.63,-28.75 26.35,0 53.75,10.44 69.51,20.89l6.32 -67.97c-14.71,-9.46 -40.51,-19.91 -82.12,-19.91 -73.72,0 -116.38,45.01 -116.38,101.49 0,46.07 31.07,83.18 89.54,103.62 41.54,14.65 53.18,24.56 53.18,44.47 0,19.82 -16.89,32.45 -46.85,32.45 -37.4,0 -72.71,-12.63 -105.33,-38.14l7.38 77.91c24.21,17.8 59.99,28.27 101.61,28.27 82.67,0 125.35,-42.94 125.35,-108.35 0,-52.33 -39.51,-89.47 -93.22,-107.29zm781.47 -126.1l-72.71 140.27c-11.56,23.04 -23.67,49.13 -32.13,71.16l-1.02 0c-8.97,-22.03 -23.72,-51.84 -33.71,-71.16l-73.24 -140.27 -66.3 0 -28.97 333.83 78.49 0 10.49 -122.95c1.6,-18.85 3.15,-39.27 3.15,-61.21l1.03 0c8.47,21.45 18.48,43.39 28.46,62.78l63.72 122.47 32.65 0 63.2 -122.47c10.02,-19.39 20.56,-41.88 28.44,-63.36l1.06 0c0,21.48 1.57,42.46 3.15,61.79l11.05 122.95 80.01 0 -29.98 -333.83 -66.84 0zm363.82 0l0 212.45c0,34.07 -26.3,57.55 -65.28,57.55 -38.94,0 -64.76,-23.48 -64.76,-57.55l0 -212.45 -81.63 0 0 219.75c0,74.35 65.29,121.36 145.37,121.36 80.55,0 145.86,-47.01 145.86,-121.36l0 -219.75 -79.56 0z"/>
   <path class="fil2" d="M231.26 1326.03c1.44,9.93 0.16,18.93 -3.37,25.36l-18.69 4.5c5.11,-8.75 6.94,-17.55 5.59,-26.62 -1,-7.21 -4.6,-10.78 -9.43,-10.11 -4.91,0.72 -6.92,3.79 -8.98,14.36 -2.9,14.73 -10.87,23.44 -22.05,25.08 -13.73,2.03 -26.18,-6.67 -28.74,-24.38 -1.49,-9.93 0.19,-16.51 1.95,-20.45l16.79 -0.8c-2.06,4.19 -3.61,11.1 -2.66,17.41 0.98,6.91 4.51,9.84 8.48,9.22 3.82,-0.56 5.75,-3.7 7.57,-13.74 2.42,-13.5 10.11,-24.28 22.82,-26.11 15.89,-2.35 27.81,6.43 30.72,26.28z"/>
   <polygon class="fil2" points="221.95,1265.27 140.17,1270.3 137.2,1222.88 153.45,1221.91 155.19,1249.53 171.46,1248.56 170.1,1225.98 186.64,1224.99 188.03,1247.57 204.44,1246.56 202.51,1215.31 218.78,1214.37 "/>
   <path class="fil2" d="M219.41 1136.39l-32.82 21.08 -0.21 7.06 32.31 0.82 -0.49 19.03 -82.02 -2.12 0.84 -30.4c0.37,-13.92 10.05,-26 25.52,-25.63 9.6,0.27 17.17,6.07 20.22,13.01l37.23 -24.88 -0.58 22.03zm-66.83 18.88l-0.17 8.42 18.32 0.41 0.22 -8.39c0.17,-5.08 -2.48,-10.3 -8.97,-10.5 -6.16,-0.12 -9.29,4.88 -9.4,10.06z"/>
   <path class="fil2" d="M226.95 1055.74l-1.88 16.11 -85.41 19.95 2.35 -20.15 37.36 -8.48c5.61,-1.28 12.45,-2.42 18.76,-3.22l0.03 -0.22c-5.95,-2.29 -12.39,-4.98 -17.49,-7.52l-34.33 -16.83 2.15 -18.66 78.46 39.02z"/>
   <polygon class="fil2" points="235.51,997.63 155.04,981.96 158.89,962.59 239.36,978.22 "/>
   <path class="fil2" d="M204.5 865.46c-3.75,3.37 -7.79,8.88 -10.11,17.34 -3.99,14.31 2.61,28.43 17.63,32.55 14.87,4.01 27.81,-4.74 31.97,-19.61 2.32,-8.54 2.27,-15.58 0.63,-20.66l16.75 6.32c1.38,5 1.09,12.09 -1.4,21.49l1.43 0.66c1.91,-5.98 8.72,-10.45 16.17,-8.44 8.8,2.44 11.29,10.76 9.29,17.91 -1.19,4.31 -2.88,6.76 -5.39,8.83l-7.67 -3.43c2.71,-2.13 3.9,-4.4 4.64,-7.19 0.87,-3.04 -0.6,-5.6 -3.4,-6.38 -3.01,-0.84 -5.52,0.95 -6.36,4.26 -0.39,1.19 -0.71,2.44 -0.81,4.26l-10 -4.4c-7.65,17.96 -26.53,32.4 -51.25,25.62 -27.22,-7.37 -35.15,-33.53 -29.47,-54.08 2.71,-9.87 6.96,-17.06 10.98,-20.97l16.37 5.92z"/>
   <path class="fil2" d="M290.53 813.28c-8.19,20.96 -31.5,34.82 -56.17,25.22 -24.42,-9.41 -32.01,-35.3 -23.84,-56.22 8.27,-21.14 31.51,-34.92 55.98,-25.47 24.62,9.63 32.28,35.43 24.03,56.47zm-63.69 -24.67c-4.49,11.39 0.63,25.66 14.88,31.22 14.38,5.61 27.9,-1.45 32.42,-12.91 4.43,-11.39 -0.65,-25.85 -14.99,-31.42 -14.25,-5.51 -27.86,1.73 -32.31,13.11z"/>
   <path class="fil2" d="M355.16 675.07l-14.01 23.67 -70.67 -41.21 13.97 -23.67c11.97,-20.29 35.5,-29.91 57.53,-17.05 22.1,12.84 25.1,37.99 13.18,58.26zm-57.12 -30.72l-3.19 5.37 41.2 23.99 3.15 -5.19c7.25,-12.27 6.45,-26.65 -7.26,-34.68 -13.76,-7.96 -26.69,-1.63 -33.9,10.51z"/>
   <polygon class="fil2" points="395.31,611.12 328.69,563.62 356.53,525.03 369.8,534.49 353.55,556.97 366.85,566.43 380.03,548.1 393.57,557.7 380.27,576.08 393.64,585.56 411.97,560.19 425.24,569.6 "/>
   <path class="fil2" d="M2356.26 1226.46c-3.79,-616.56 -506.68,-1113.33 -1123.23,-1109.56 -616.56,3.8 -1113.3,506.66 -1109.5,1123.25 3.74,616.53 506.65,1113.29 1123.21,1109.53 616.53,-3.78 1113.32,-506.69 1109.52,-1123.22z"/>
   <path class="fil1" d="M1432.49 568.08l-400.43 0 0 310.67c-38.35,-21.64 -271.93,-153.23 -271.93,-153.23l-205.06 359.42c0,0 224.02,126.22 263.33,148.37 -39.31,22.15 -263.33,148.37 -263.33,148.37l205.06 359.42c0,0 233.61,-131.61 271.93,-153.2l0 310.62 415.64 0 0 -310.62c38.33,21.59 271.94,153.2 271.94,153.2l205.07 -359.42c0,0 -224,-126.22 -263.3,-148.37 39.3,-22.15 263.3,-148.37 263.3,-148.37l-205.07 -359.42c0,0 -233.56,131.59 -271.94,153.23l0 -310.67 -15.21 0zm-36.36 30.42l21.13 0 0 332.31c0,0 267,-150.43 290.97,-163.89 13.25,23.23 161.52,283.05 174.89,306.53 -24.1,13.62 -283.73,159.86 -283.73,159.86 0,0 259.63,146.3 283.73,159.88 -13.37,23.5 -161.64,283.28 -174.89,306.54 -23.97,-13.52 -290.97,-163.92 -290.97,-163.92l0 332.26 -354.73 0 0 -332.26c0,0 -267.03,150.4 -290.96,163.92 -13.26,-23.26 -161.49,-283.04 -174.88,-306.54 24.11,-13.58 283.69,-159.88 283.69,-159.88 0,0 -259.58,-146.24 -283.69,-159.86 13.39,-23.48 161.62,-283.3 174.88,-306.53 23.93,13.46 290.96,163.89 290.96,163.89l0 -332.31 333.6 0z"/>
   <path class="fil0" d="M1359.81 638.71l-256.8 0 0 361.14c-43.09,-24.31 -316.19,-178.17 -316.19,-178.17l-135.02 236.66c0,0 266.61,150.16 310.58,174.97 -43.97,24.78 -310.58,174.95 -310.58,174.95l135.02 236.65c0,0 273.1,-153.81 316.19,-178.14l0 361.23 273.75 0 0 -361.23c43.14,24.33 316.16,178.14 316.16,178.14l135.02 -236.65c0,0 -266.59,-150.17 -310.55,-174.95 43.96,-24.81 310.55,-174.97 310.55,-174.97l-135.02 -236.66c0,0 -273.02,153.86 -316.16,178.17l0 -361.14 -16.95 0z"/>
   <path class="fil1" d="M561.88 1989.02l32.26 27.76 8.88 -10.21 -19.81 -16.92 8.9 -10.27 14.27 12.25 9.02 -10.3 -14.25 -12.26 8.8 -10.22 17.51 15.04 8.85 -10.14 -30.01 -25.8 -44.42 51.07zm139.19 57.4c-4.55,2.6 -9.58,5.64 -13.47,8.37l-0.19 -0.17c1.03,-4.64 1.93,-11.33 2.44,-15.64l3.6 -31.8 -11.1 -7.42 -42.85 52.81 13.18 8.85 15.82 -19.49c2.39,-3.02 4.98,-6.29 7.47,-9.94l0.17 0.05c-1.04,4.59 -1.89,9.35 -2.4,13.73l-3.19 27.74 5.51 3.67 24.5 -13.49c3.89,-2.08 8.22,-4.67 11.97,-7.4l0.19 0.12c-2.47,3.65 -4.57,7.28 -6.48,10.71l-12.11 21.94 13.44 8.96 32.86 -59.45 -11.17 -7.53 -28.19 15.38zm55.42 79.3l13.95 6.91 11.05 -10.25 19.97 9.98 -1.52 14.92 14.66 7.28 6.69 -72.78 -10.15 -5.11 -54.65 49.05zm48.65 -20.58l-1.69 14.28 -12.77 -6.4 10.47 -9.89c1.55,-1.36 3.43,-3.32 4.98,-5.27l0.22 0.16c-0.48,2.4 -1.01,5.06 -1.21,7.12zm-274.45 -242.61l-9.53 8.92 14.07 14.88 -39.99 37.38 11.27 11.85 39.92 -37.26 13.98 14.79 9.64 -8.99 -39.36 -41.57zm473.51 272.06l0.63 -11.44c-8.06,4.23 -18.6,5.75 -26.48,5.71l4.78 8.49c7.6,0.21 13.5,-0.13 21.07,-2.76zm952.35 -284.75c3.33,-6.8 5.49,-12.24 6.38,-20.17l-10.17 -5.37c0.45,9.04 -2.6,19.17 -5.95,26.29l9.74 -0.75zm-972.96 339.16c-1.86,6.6 -8.31,9.76 -15.88,7.59 -7.62,-2.15 -11.36,-8.2 -9.41,-14.7l11.87 -41.4 -15.91 -4.53 -12.31 42.76c-4.08,14.46 5.95,27.25 21.55,31.7 15.69,4.42 31.04,-1.16 35.18,-15.57l12.24 -42.81 -15.4 -4.37 -11.93 41.33zm1031.94 -328.93l-33.86 -29.14 -10.52 12.16 32.7 28.12c5.27,4.47 5.36,11.59 0.24,17.53 -5.13,5.93 -12.24,6.75 -17.43,2.26l-32.75 -28.18 -10.78 12.46 33.83 29.06c11.49,9.86 27.35,6.19 37.99,-6 10.61,-12.31 11.99,-28.44 0.58,-38.27zm-1525.37 -49.67c-9.06,-11.78 -21.59,-13.03 -30.71,-6.12 -7.47,5.66 -9.69,15.16 -5.8,27.06 2.78,8.44 2.62,11.53 -0.63,13.98 -3.21,2.39 -7.35,1.28 -10.98,-3.53 -4.62,-5.93 -6.93,-13.13 -6.77,-21.5l-11.75 10.78c0.13,6.05 2.83,13.03 7.93,19.68 10.16,13.18 22.37,14.75 32.94,6.71 8.48,-6.49 9.62,-17.25 5.9,-28.08 -2.81,-8 -2.61,-11.1 -0.1,-13.04 2.64,-1.95 6.36,-1.32 9.92,3.29 3.24,4.21 4.95,9.87 5.19,13.71l11.76 -7.39c-0.27,-3.51 -1.77,-8.93 -6.9,-15.55zm-111.64 -139.86c2.98,-1.5 6.51,-0.17 9.14,4.93 2.47,4.74 3.1,10.61 2.64,14.44l12.93 -5.27c0.39,-3.46 -0.14,-9.05 -3.99,-16.52 -6.84,-13.18 -18.93,-16.59 -29.15,-11.37 -8.37,4.23 -12.25,13.28 -10.48,25.59 1.16,8.8 0.46,11.82 -3.16,13.64 -3.61,1.86 -7.43,0 -10.18,-5.37 -3.48,-6.7 -4.45,-14.17 -2.88,-22.39l-13.42 8.53c-1,5.98 0.43,13.37 4.32,20.77 7.6,14.87 19.35,18.5 31.22,12.43 9.5,-4.81 12.55,-15.43 10.79,-26.59 -1.33,-8.42 -0.58,-11.35 2.22,-12.82zm56.2 63.18l-57.51 36.15 8.85 13.81 57.46 -36.1 -8.8 -13.86zm1131.68 389.84l-21.48 7.91 23.6 63.45 21.5 -7.93c18.4,-6.78 29.74,-24.52 22.44,-44.32 -7.4,-19.74 -27.64,-25.93 -46.06,-19.11zm16.9 50.86l-4.81 1.71 -13.74 -36.95 4.77 -1.74c11.12,-4.06 22.85,-1.4 27.39,10.91 4.59,12.4 -2.49,21.95 -13.61,26.07zm104.38 -43.53l-6.11 -12.12 16.9 -8.36 -6.09 -12.21 -16.9 8.34 -6.03 -12.07 20.73 -10.22 -6.03 -12.07 -35.54 17.58 30.27 60.52 38.18 -18.91 -5.99 -11.99 -23.39 11.51zm136.09 -115.76c-8.05,2.6 -11.17,2.42 -13.06,-0.19 -1.98,-2.66 -1.22,-6.36 3.54,-9.74 4.3,-3.14 10.01,-4.67 13.85,-4.84l-7.13 -11.87c-3.58,0.17 -9.02,1.59 -15.79,6.48 -12.09,8.73 -13.67,21.21 -6.87,30.39 5.54,7.53 15.07,9.92 27.11,6.29 8.54,-2.49 11.65,-2.29 14.02,0.99 2.37,3.24 1.14,7.26 -3.77,10.89 -6.11,4.44 -13.35,6.55 -21.78,6.23l10.59 11.9c6.04,0 13.17,-2.59 19.99,-7.47 13.47,-9.82 15.33,-21.91 7.42,-32.55 -6.21,-8.56 -17.16,-9.99 -28.12,-6.51zm56.23 -79.21l26.42 68.24 11.49 -10.42 -5.66 -13.91 16.47 -14.99 13.54 6.82 12.11 -11.02 -65.96 -32.32 -8.41 7.6zm18.3 12.12c2.1,1.35 4.38,2.73 6.21,3.64l12.82 6.68 -10.52 9.58 -5.59 -13.28c-0.77,-1.89 -1.81,-4.37 -3.09,-6.48l0.17 -0.14zm-791.43 248.19c-0.7,4.21 -1.24,8.53 -1.67,12.52l-0.25 0.1c-2.41,-4.4 -6.28,-10.5 -8.89,-14.51l-18.82 -28.46 -13.2 -2.01 -10.54 66.77 16.32 2.56 4.45 -28.27c0.68,-4.21 1.38,-9.33 1.96,-14.1l0.17 -0.05c2.93,4.94 6.72,11.34 10.25,16.64l21.59 32.45 8.2 1.31 10.74 -67.42 -16.35 -2.63 -3.96 25.1zm969.15 -438.06c-17.57,-11.8 -37.59,-5.06 -48.57,11.1l-12.82 18.88 56.29 37.8 12.84 -18.84c11.08,-16.13 9.82,-37.19 -7.74,-48.94zm-5.03 42.65l-2.92 4.16 -32.86 -22 2.92 -4.21c6.6,-9.8 17.71,-14.34 28.63,-6.96 10.96,7.35 10.86,19.22 4.23,29.01zm-891.95 445.03l16.52 0.96 3.7 -67.53 -16.49 -0.9 -3.73 67.47zm214.13 -79.25c-18.5,3.02 -33.88,19.35 -30.42,40.65 3.48,21.55 23.23,32.23 41.8,29.29 18.6,-3.05 33.98,-19.35 30.47,-40.92 -3.43,-21.33 -23.19,-31.9 -41.85,-29.02zm8.99 55.57c-10.06,1.65 -20.87,-5 -22.92,-17.55 -1.98,-12.51 6.21,-22.16 16.24,-23.75 10.09,-1.59 21,4.98 23.07,17.48 1.99,12.5 -6.28,22.22 -16.39,23.82zm-130.91 -8.49c-0.51,-12.79 9.07,-21.59 21.42,-22.1 7.33,-0.31 12.75,1.5 16.35,3.63l0.6 -14.34c-4.13,-2.15 -10.93,-3.7 -19.44,-3.36 -17.79,0.72 -36.61,13.54 -35.59,36.87 0.89,23.19 20.57,34.56 38.49,33.91 8.2,-0.42 13.88,-2.01 17.61,-4.38l0.79 -14.78c-3.62,2.62 -9.24,4.36 -16.56,4.69 -12.91,0.54 -23.12,-7.47 -23.67,-20.14zm871.03 -531.49l-12.21 22.95 -12.09 -6.41 8.85 -16.54 -12.16 -6.38 -8.78 16.54 -12.04 -6.27 10.85 -20.33 -12.01 -6.21 -18.5 34.79 60.14 31.56 19.94 -37.43 -11.99 -6.27z"/>
   <path class="fil1" d="M2245.22 808.58c-54.96,-129.92 -133.62,-246.59 -233.78,-346.84 -100.25,-100.16 -216.97,-178.84 -346.89,-233.78 -134.47,-56.97 -277.35,-85.77 -424.69,-85.77 -147.26,0 -290.12,28.8 -424.68,85.77 -129.92,54.94 -246.57,133.62 -346.8,233.78 -100.2,100.25 -178.89,216.92 -233.83,346.84 -56.87,134.52 -85.76,277.47 -85.76,424.71 0,147.34 28.89,290.24 85.76,424.76 54.94,129.92 133.63,246.62 233.83,346.8 100.23,100.18 216.88,178.86 346.8,233.83 134.56,56.85 277.42,85.74 424.68,85.74 147.34,0 290.22,-28.89 424.69,-85.74 129.92,-54.97 246.64,-133.65 346.89,-233.83 100.16,-100.18 178.82,-216.88 233.78,-346.8 56.92,-134.52 85.77,-277.42 85.77,-424.76 0,-147.24 -28.85,-290.19 -85.77,-424.71zm-1005.33 -445.21c480.42,0 869.92,389.45 869.92,869.92 0,480.47 -389.5,869.95 -869.92,869.95 -480.44,0 -869.92,-389.48 -869.92,-869.95 0,-480.47 389.48,-869.92 869.92,-869.92zm982.12 1284.84c-53.73,126.97 -130.55,240.91 -228.44,338.81 -97.86,97.94 -211.86,174.69 -338.79,228.42 -131.39,55.59 -270.99,83.79 -414.92,83.79 -143.92,0 -283.44,-28.2 -414.86,-83.79 -126.93,-53.73 -240.93,-130.48 -338.79,-228.42 -97.89,-97.9 -174.76,-211.84 -228.44,-338.81 -9.75,-23.09 -20.68,-55.52 -28.73,-79.09l151.81 -86.23c40.28,142.42 121.29,276.53 227.13,382.44 168.75,168.76 393.2,261.65 631.88,261.65 238.74,0 462.7,-93.38 631.97,-261.65 110.14,-109.5 185.08,-242.75 226.81,-383.6l153.23 87.15c-8.48,25.24 -19.46,54.69 -29.86,79.33z"/>
   <path class="fil2" d="M308.67 1369.93c1.33,9.22 0.14,17.54 -3.1,23.51l-17.33 4.16c4.74,-8.1 6.43,-16.27 5.17,-24.69 -0.89,-6.65 -4.25,-9.99 -8.73,-9.38 -4.54,0.7 -6.4,3.55 -8.31,13.32 -2.69,13.66 -10.07,21.74 -20.42,23.24 -12.74,1.86 -24.27,-6.19 -26.67,-22.59 -1.33,-9.18 0.2,-15.26 1.84,-18.93l15.55 -0.75c-1.91,3.87 -3.36,10.31 -2.49,16.13 0.94,6.41 4.21,9.12 7.89,8.56 3.53,-0.53 5.34,-3.43 7.01,-12.74 2.25,-12.5 9.36,-22.49 21.15,-24.18 14.7,-2.2 25.73,5.92 28.44,24.34z"/>
   <polygon class="fil2" points="300.04,1313.66 224.28,1318.31 221.55,1274.39 236.59,1273.5 238.21,1299.06 253.27,1298.14 252.02,1277.25 267.33,1276.33 268.63,1297.22 283.84,1296.3 282.05,1267.36 297.11,1266.49 "/>
   <path class="fil2" d="M297.69 1194.27l-30.39 19.54 -0.2 6.53 29.91 0.75 -0.43 17.65 -75.97 -1.99 0.76 -28.17c0.35,-12.86 9.32,-24.06 23.66,-23.71 8.87,0.21 15.88,5.6 18.74,12.04l34.45 -23.07 -0.53 20.43zm-61.9 17.49l-0.15 7.78 16.98 0.41 0.19 -7.78c0.15,-4.72 -2.32,-9.53 -8.29,-9.73 -5.74,-0.09 -8.61,4.53 -8.73,9.32z"/>
   <path class="fil2" d="M304.68 1119.56l-1.74 14.92 -79.12 18.49 2.2 -18.66 34.58 -7.86c5.2,-1.21 11.54,-2.25 17.38,-3l0.03 -0.19c-5.52,-2.13 -11.46,-4.6 -16.17,-6.94l-31.85 -15.6 2.03 -17.31 72.66 36.15z"/>
   <polygon class="fil2" points="312.61,1065.74 238.08,1051.21 241.61,1033.27 316.16,1047.75 "/>
   <path class="fil2" d="M283.89 943.31c-3.49,3.11 -7.21,8.24 -9.38,16.08 -3.68,13.25 2.41,26.32 16.32,30.12 13.8,3.7 25.8,-4.4 29.62,-18.16 2.15,-7.88 2.1,-14.41 0.58,-19.1l15.52 5.83c1.29,4.67 1.02,11.19 -1.28,19.92l1.31 0.61c1.76,-5.56 8.1,-9.7 15.01,-7.84 8.13,2.25 10.43,9.99 8.59,16.59 -1.12,3.99 -2.69,6.26 -5.01,8.2l-7.08 -3.2c2.49,-1.98 3.6,-4.08 4.3,-6.65 0.8,-2.82 -0.58,-5.19 -3.17,-5.92 -2.77,-0.77 -5.1,0.87 -5.89,3.94 -0.37,1.11 -0.66,2.28 -0.76,3.97l-9.26 -4.11c-7.08,16.66 -24.56,30.01 -47.46,23.77 -25.22,-6.85 -32.58,-31.08 -27.3,-50.13 2.51,-9.14 6.45,-15.77 10.18,-19.41l15.16 5.49z"/>
   <path class="fil2" d="M363.57 894.99c-7.59,19.42 -29.18,32.26 -52.03,23.36 -22.61,-8.73 -29.65,-32.72 -22.08,-52.09 7.67,-19.56 29.18,-32.3 51.87,-23.6 22.77,8.93 29.89,32.82 22.24,52.33zm-59 -22.85c-4.16,10.54 0.58,23.77 13.79,28.92 13.32,5.2 25.84,-1.35 30.03,-11.97 4.11,-10.56 -0.61,-23.94 -13.91,-29.11 -13.18,-5.11 -25.8,1.59 -29.91,12.16z"/>
   <path class="fil2" d="M423.43 766.95l-12.96 21.93 -65.48 -38.15 12.94 -21.93c11.1,-18.79 32.91,-27.71 53.3,-15.79 20.48,11.9 23.23,35.18 12.2,53.94zm-52.91 -28.43l-2.94 4.95 38.18 22.25 2.9 -4.84c6.7,-11.36 5.97,-24.66 -6.72,-32.11 -12.74,-7.37 -24.76,-1.52 -31.42,9.75z"/>
   <polygon class="fil2" points="460.63,707.73 398.92,663.74 424.69,628.01 437,636.74 421.94,657.58 434.25,666.36 446.48,649.36 459.01,658.25 446.7,675.25 459.08,684.06 476.05,660.53 488.34,669.26 "/>
   <path class="fil2" d="M569.34 577.03l-15.56 -6.55 -17.24 17.94 7.38 15.06 -12.02 12.46 -34.67 -73.97 8.8 -9.14 75.97 31.07 -12.66 13.13zm-43.53 -19.44c-2.1,-0.85 -4.76,-2.23 -7.28,-3.54l-0.14 0.16c1.57,2.31 2.99,4.92 3.96,7.01l7.26 14.38 11 -11.44 -14.8 -6.57z"/>
   <polygon class="fil2" points="581.71,482.69 622.13,528.27 608.4,540.31 567.9,494.61 550.64,509.68 540.99,498.77 589.16,456.63 598.83,467.68 "/>
   <polygon class="fil2" points="660.42,496.91 615.28,436.21 650.85,410.07 659.89,422.16 639.1,437.42 648.09,449.54 664.99,437.06 674.08,449.32 657.21,461.75 666.25,473.91 689.68,456.72 698.7,468.81 "/>
   <path class="fil2" d="M775.07 422.03l-41.98 -12.48c-6.79,-2.03 -14.7,-4.69 -20.72,-6.92l-0.15 0.2c2.96,4.47 6.05,9.38 8.51,13.42l16.62 27.35 -15.79 9.48 -39.2 -64.69 12.75 -7.61 36.65 10.95c5.05,1.55 12.84,4.04 18.06,6.02l0.15 -0.24c-2.52,-3.72 -5.13,-7.79 -7.59,-11.85l-14.78 -24.33 15.82 -9.45 39.63 65.31 -7.98 4.84z"/>
   <path class="fil2" d="M833.83 391.12l-23.19 10.78 -32.16 -68.38 23.24 -10.76c19.81,-9.19 42.92,-4.26 52.93,17.02 10.01,21.35 -0.99,42.12 -20.82,51.34zm-27.42 -53.2l-5.15 2.4 18.74 39.84 5.17 -2.41c11.98,-5.54 19.01,-16.91 12.75,-30.18 -6.21,-13.3 -19.46,-15.23 -31.51,-9.65z"/>
   <polygon class="fil2" points="899.7,362.99 873.08,292.29 890.37,285.91 916.99,356.53 "/>
   <path class="fil2" d="M1017.84 325.99l-9.75 -26.19c-1.57,-4.16 -3.12,-8.58 -4.43,-13.25l-0.19 0.05c-0.43,5.15 -1.43,10.66 -2.44,15.47l-6.46 30.47 -7.09 1.89 -21.22 -22.92c-3.39,-3.66 -6.84,-7.82 -9.97,-12.03l-0.24 0.11c1.33,4.78 2.18,9.3 3,13.49l5.01 27.44 -17.1 4.67 -13.64 -74.5 14.44 -3.94 24.4 26.26c3.34,3.62 8.29,9.24 11.58,13.49l0.24 -0.05c0.51,-5.27 1.62,-11.68 2.73,-17.38l7.47 -34.9 14.59 -3.94 26.52 71.02 -17.45 4.74z"/>
   <polygon class="fil2" points="1064.71,316.14 1052.47,241.64 1096.11,234.61 1098.58,249.36 1073.08,253.54 1075.54,268.36 1096.33,264.98 1098.8,280.04 1077.98,283.4 1080.47,298.37 1109.25,293.66 1111.69,308.48 "/>
   <path class="fil2" d="M1201.16 301.59l-31.65 -30.13c-5.03,-4.93 -10.84,-10.9 -15.24,-15.59l-0.24 0.14c0.61,5.27 1.16,11.08 1.45,15.8l2.16 31.81 -18.41 1.29 -5.1 -75.3 14.9 -1.01 27.49 26.4c3.87,3.65 9.62,9.4 13.33,13.56l0.24 -0.12c-0.54,-4.47 -1.02,-9.31 -1.33,-14.02l-1.84 -28.34 18.33 -1.23 5.19 76.11 -9.28 0.63z"/>
   <polygon class="fil2" points="1280.12,240.48 1278.04,301.27 1259.74,300.67 1261.8,239.78 1238.85,238.99 1239.33,224.48 1303.44,226.68 1302.93,241.3 "/>
   <path class="fil2" d="M1361.37 310.45c-20.78,-2.75 -38.43,-20.51 -35.18,-44.68 3.24,-23.9 25,-36.37 45.77,-33.6 20.86,2.79 38.54,20.56 35.25,44.48 -3.23,24.15 -25,36.58 -45.84,33.8zm8.44 -62.29c-11.4,-1.52 -23.17,6.19 -25.06,20.1 -1.93,14.09 7.5,24.66 18.79,26.13 11.32,1.5 23.27,-6.16 25.23,-20.21 1.85,-13.98 -7.67,-24.57 -18.96,-26.02z"/>
   <path class="fil2" d="M1544.98 351.66l5.99 -27.28c0.94,-4.31 2.06,-8.87 3.49,-13.52l-0.24 -0.02c-3.13,4.04 -6.95,8.17 -10.4,11.68l-21.98 22.18 -7.02 -2.16 -5.39 -30.68c-0.87,-4.82 -1.55,-10.23 -1.91,-15.48l-0.24 -0.05c-1.46,4.72 -3.17,9.04 -4.81,12.96l-10.67 25.83 -16.95 -5.27 29.02 -70.03 14.29 4.43 6.24 35.18c0.87,4.86 2.01,12.23 2.44,17.62l0.22 0.05c3.29,-4.23 7.74,-9.07 11.8,-13.2l25.22 -25.39 14.36 4.52 -16.2 73.97 -17.26 -5.34z"/>
   <path class="fil2" d="M1624.12 385.26c-19.08,-8.58 -30.9,-30.61 -20.77,-52.81 9.89,-22.01 34.36,-27.78 53.43,-19.22 19.2,8.61 31.01,30.64 21.05,52.59 -10.04,22.22 -34.49,28 -53.71,19.44zm26.09 -57.36c-10.49,-4.69 -24.08,-0.62 -29.89,12.19 -5.85,12.94 0.03,25.65 10.5,30.37 10.39,4.67 24.11,0.7 30.03,-12.26 5.78,-12.81 -0.27,-25.7 -10.64,-30.3zm5.64 -21.21l-3.92 -10.08c8.68,1.26 20.55,1.28 30.15,-2.03l-2.51 12.51c-8.83,1.61 -15.33,1.04 -23.72,-0.4z"/>
   <path class="fil2" d="M1718.69 432.68l-13.01 -7.55 14.58 -79.5 16.32 9.52 -6.6 34.68c-0.94,5.15 -2.53,11.37 -4.18,16.95l0.19 0.15c4.12,-4.16 8.83,-8.64 12.84,-12.03l27.16 -22.7 15.11 8.75 -62.41 51.73z"/>
   <polygon class="fil2" points="1764.08,460.49 1808.04,398.97 1844.19,424.37 1835.41,436.65 1814.33,421.76 1805.6,434.01 1822.79,446.15 1813.91,458.61 1796.72,446.52 1787.92,458.83 1811.69,475.56 1802.89,487.84 "/>
   <polygon class="fil2" points="1825.07,505 1873.86,447.22 1887.95,459.06 1849.36,504.76 1872.65,524.2 1862.47,536.29 "/>
   <path class="fil2" d="M1932.38 605.53l-17.11 -18.93 56.53 -50.37 17.12 18.93c14.63,16.15 16.52,39.56 -1.09,55.26 -17.65,15.74 -40.84,11.27 -55.45,-4.89zm43.31 -41.5l-3.79 -4.2 -32.96 29.38 3.77 4.21c8.85,9.77 21.79,13.15 32.79,3.41 10.98,-9.87 9.02,-23.02 0.19,-32.8z"/>
   <polygon class="fil2" points="1977.88,658.73 2038.74,613.66 2065.19,648.92 2053.1,657.91 2037.68,637.33 2025.59,646.23 2038.11,663.09 2025.78,672.22 2013.2,655.42 2001.04,664.44 2018.38,687.7 2006.3,696.65 "/>
   <path class="fil2" d="M2061.16 788.09c-8.67,-15.77 -6.33,-33.68 8.49,-41.74l43.87 -23.82 8.85 16.13 -42.42 22.95c-6.79,3.75 -8.7,11.34 -4.49,19.01 4.2,7.71 11.8,10.37 18.54,6.65l42.44 -23 8.61 15.72 -43.86 23.77c-14.85,8.05 -31.32,0.27 -40.03,-15.67z"/>
   <path class="fil2" d="M2109.5 885.59l19.52 -30.3 -2.54 -5.99 -27.49 11.6 -6.95 -16.22 69.93 -29.5 11.03 25.92c5.03,11.87 1.57,25.8 -11.56,31.34 -8.22,3.5 -16.88,1.47 -22.12,-3.29l-21.77 35.3 -8.05 -18.86zm49.04 -41.32l-3.07 -7.21 -15.65 6.6 3.08 7.16c1.86,4.37 6.12,7.74 11.6,5.39 5.25,-2.2 5.95,-7.62 4.04,-11.94z"/>
   <path class="fil2" d="M2134.3 960.61c-6.29,-19.81 0.48,-44.03 25.19,-51.84 25,-7.89 44.42,8.65 50.44,27.54 3.22,10.08 3.22,18.79 1.53,24.74l-15.82 3.5c2.01,-6.07 2.18,-13.7 -0.29,-21.59 -4.18,-13.11 -16.46,-21.14 -30.75,-16.66 -13.62,4.26 -19.23,17.31 -15.1,30.42 1.36,4.16 3.01,7.06 5.3,9.16l10.26 -3.24 -4.17 -13.1 13.47 -4.23 9.26 29.06 -33.36 10.52c-6.82,-4.6 -12.22,-12.69 -15.96,-24.28z"/>
   <path class="fil2" d="M2151.85 1016.68l74.26 -15.92 9.39 42.95 -14.8 3.19 -5.44 -25.13 -14.8 3.25 4.45 20.4 -14.99 3.26 -4.45 -20.43 -14.92 3.22 6.16 28.29 -14.75 3.17 -10.11 -46.25zm88.65 15.47c0.94,-4.11 2.13,-7.67 4.81,-11.59 -4.08,-2.49 -6.63,-5.24 -9.21,-8.55l5.51 -8.71c4.18,5.56 10.91,10.83 18.91,13.98 -5.99,6.09 -9.89,13.73 -11.36,20.45l-8.66 -5.58z"/>
   <path class="fil2" d="M2173.52 1151.34l28.65 -32.91c4.6,-5.32 10.38,-11.34 14.9,-15.93l-0.17 -0.2c-5.34,0.9 -11.12,1.64 -15.81,2.2l-31.9 3.8 -2.17 -18.24 75.41 -8.86 1.75 14.67 -25.06 28.65c-3.53,4.05 -9.04,10.06 -13.03,13.96l0.15 0.19c4.47,-0.8 9.3,-1.45 14.02,-1.98l28.41 -3.39 2.13 18.23 -76.22 8.95 -1.06 -9.14z"/>
   <path class="fil2" d="M2235.07 1249.93c2.49,-3.94 4.62,-9.94 4.52,-18.09 -0.22,-13.66 -9.84,-24.57 -24.18,-24.35 -14.31,0.24 -23.55,11.35 -23.31,25.68 0.07,8.2 2,14.37 4.79,18.48l-16.56 -1.28c-2.59,-4.16 -4.21,-10.59 -4.36,-19.69 -0.31,-19.8 13.08,-41.37 39.13,-41.73 26.18,-0.42 40.11,20.77 40.4,40.53 0.15,9.45 -1.81,16.95 -4.33,21.46l-16.1 -1.01z"/>
   <polygon class="fil2" points="2176.53,1282.21 2252.36,1286.83 2251.2,1305.11 2175.42,1300.49 "/>
   <path class="fil2" d="M2166.06 1381.72l16.52 -3.63 3.48 -24.64 -14.85 -7.93 2.44 -17.05 71.57 39.95 -1.76 12.5 -79.92 18.82 2.52 -18.02zm46.76 -9.48c2.28,-0.51 5.18,-0.94 7.98,-1.23l0.1 -0.27c-2.63,-0.94 -5.34,-2.27 -7.38,-3.43l-14.31 -7.47 -2.2 15.72 15.81 -3.32z"/>
   <path class="fil2" d="M1206.31 1186.85l-1.89 -40.74c-2,-1.55 -4.09,-3.07 -6.05,-4.62 -67.55,-65.19 -12.3,-96.94 -12.3,-96.94 0,0 4.04,8.15 23.28,8.88 3.34,0.14 7.06,0.22 10.96,0.22 10.63,-0.17 21.38,-1.19 28.53,-3.34 4.04,-1.57 6.77,-3.87 7.11,-7.09 0.22,-2.27 -0.78,-4.32 -2.63,-6.16 -2.2,-1.6 -5.25,-3.15 -9.17,-5.08 -4.28,-2.03 -9.07,-4.45 -14,-7.66 -6.14,-4.16 -11.46,-8.2 -16.2,-11.78 -4.09,-3.1 -12.02,-8.9 -21.93,-10.3 -26.24,-1.19 -44.79,14.07 -56.2,34.33 -26.33,47.13 -8.39,95.18 40.48,129.44 9.65,6.72 19.92,13.76 30.01,20.84z"/>
   <path class="fil2" d="M1259.75 1442.15l-1.5 35.13c3.7,4.64 5.9,9.26 5.9,14.1 0,9.89 -6.9,17.33 -16.13,24.13l7.79 -182.8 0.06 -1.72c28.25,-25.44 60,-52.74 60.41,-83.43 0,-19.65 -19.81,-37.84 -45.26,-55.87l-2.23 49.56c2.23,3.89 3.53,7.62 3.58,11.03 0.31,10.03 -5.4,19.93 -14.17,29.86l0.02 -0.04c-9.65,10.66 -23,21.59 -23,21.59 0,0 17.9,-19.54 23.51,-32.07l14.68 -310.31 -34.63 -27.05 -34.58 27.05 2.18 37.02c5.75,2.74 10.32,6 13.01,8.04 0,0 15.23,11.07 15.26,11.07 0,0 13.03,7.08 13.15,7.16l10.3 5.78 0.19 0.07 0.78 0.75c4.08,4.01 5.12,8.2 5.12,11.41 0,0.51 -0.02,0.99 -0.07,1.45 -0.43,4.33 -2.93,10.25 -12.89,14.1 -9.19,2.78 -21.83,3.58 -30.92,3.7 0,0 -11.25,-0.19 -11.27,-0.19 -0.08,-0.03 -0.13,-0.03 -0.17,-0.03l12.14 254.33c-26.02,21.89 -52.14,45 -52.14,71.22 0,24.22 24.64,42.48 48.87,58.78l-1.83 -44.79c-2.04,-3.89 -3.22,-7.9 -3.15,-11.94 0.12,-8.19 4.11,-16.47 10.4,-24.91l6.94 162.93c-15.7,9.94 -30.88,20.82 -30.88,38.62 0,17.84 15.04,30.56 34.26,39.58l1.23 29.57c0,0.08 -0.06,0.17 -0.06,0.22 0,2.28 1.85,4.09 4.13,4.09 2.3,0 4.11,-1.81 4.11,-4.09l0 -0.05 1.08 -25.29c7.24,2.79 14.76,5.13 22.08,7.06 4.51,1.19 4.6,-0.17 0.59,-1.93 -8.39,-3.65 -15.87,-7.5 -22.4,-11.46l2.83 -65.95c22.49,-12.33 48.85,-25.34 50.01,-46.88 0.94,-17.65 -17.48,-33.4 -37.33,-48.6z"/>
   <path class="fil2" d="M1231.16 1550.99l1.91 44.77c-11.54,-9.06 -18.04,-18.56 -17.92,-27.95 0.1,-7.83 6.6,-14.34 15.79,-20.55 0.2,-0.12 0.39,-0.26 0.56,-0.39 2.44,-1.61 5,-3.24 7.74,-4.81 -1.91,1.79 -5.83,5.64 -8.08,8.93z"/>
  </g>
 </g>
</svg>
